# xmcd
#
# Track frame offsets:
#	150
#	14720
#	31265
#	53435
#	70165
#	91195
#	105825
#	122755
#	135825
#	148782
#	160907
#
# Disc length: 2435 seconds
#
# Revision: 0
# Processed by: cddbd v1.4PL0 Copyright (c) Steve Scherf et al.
# Submitted via: dBpowerAMP V4.0
#
DISCID=8409810b
DTITLE=Geronimo Trevino - Geronimo the Third Generation
DYEAR=1900
DGENRE=
TTITLE0=Rio Grande
TTITLE1=Now You Know
TTITLE2=Barbie Dolls
TTITLE3=She Drank The Wine
TTITLE4=Honeymooners
TTITLE5=Macho Man from Taco Land
TTITLE6=Line By Line
TTITLE7=Girls Like Her Like Men Like Me
TTITLE8=Estoy Sentado Aqui
TTITLE9=Tell Me
TTITLE10=One For Buck
EXTD=Geroniomo Trevino - Third Generation
EXTT0=
EXTT1=
EXTT2=
EXTT3=
EXTT4=
EXTT5=
EXTT6=
EXTT7=
EXTT8=
EXTT9=
EXTT10=
PLAYORDER=
